<?xml version="1.0" encoding="utf-8"?>
<!-- Generator: Adobe Illustrator 25.0.1, SVG Export Plug-In . SVG Version: 6.00 Build 0)  -->
<svg version="1.1" id="Layer_1" xmlns="http://www.w3.org/2000/svg" xmlns:xlink="http://www.w3.org/1999/xlink" x="0px" y="0px"
	 viewBox="0 0 16 16" style="enable-background:new 0 0 16 16;" xml:space="preserve">
<style type="text/css">
	.st0{fill-rule:evenodd;clip-rule:evenodd;fill:#FFFFFF;}
</style>
<path class="st0" d="M7.4,10.9l1,2.8h1.3L5.9,3.9H4.8l-3.7,9.6h1.3l0.9-2.8h4.1V10.9z M5.5,5.6v0.1L7,9.9H3.7l1.5-4.1V5.6V5.4V5.2V5
	l0,0v0.1v0.2C5.5,5.4,5.5,5.6,5.5,5.6z M13.9,7.7v1H15V4.2c0-0.8-0.2-1.5-0.6-2c-0.5-0.5-1-0.7-1.8-0.7c-0.2,0-0.5,0-0.7,0.1
	c-0.5,0.1-0.8,0.2-1.3,0.3c-0.1,0.1-0.2,0.1-0.3,0.2v1.1c0.3-0.2,0.7-0.5,1-0.6c0.3-0.1,0.8-0.2,1.3-0.2c0.2,0,0.5,0,0.6,0.1
	c0.2,0.1,0.3,0.1,0.5,0.3c0.1,0.1,0.2,0.3,0.3,0.6c0.1,0.2,0.1,0.5,0.1,0.8l-2.3,0.2c-0.3,0-0.7,0.1-1,0.2c-0.2,0.1-0.5,0.2-0.7,0.5
	C9.9,5.6,9.8,5.8,9.6,6.1c0,0.2-0.1,0.6-0.1,0.8c0,0.2,0,0.6,0.1,0.8c0.1,0.2,0.2,0.5,0.5,0.7c0.2,0.2,0.5,0.3,0.7,0.5
	c0.2,0.1,0.6,0.1,0.9,0.1c0.5,0,0.9-0.1,1.3-0.3S13.7,8,13.9,7.7L13.9,7.7z M11.5,5.6c0.2-0.1,0.5-0.1,0.8-0.1L14,5.3V6
	c0,0.2,0,0.6-0.1,0.8c-0.1,0.2-0.2,0.5-0.3,0.7c-0.1,0.2-0.3,0.3-0.6,0.5C12.7,8,12.5,8,12.2,8c-0.2,0-0.5,0-0.6-0.1
	c-0.1,0-0.3-0.1-0.5-0.2c-0.1-0.1-0.2-0.2-0.2-0.3c-0.2-0.2-0.2-0.3-0.2-0.6c0-0.1,0-0.3,0.1-0.5c0-0.1,0.1-0.2,0.2-0.3
	C11.1,5.8,11.3,5.7,11.5,5.6z"/>
</svg>
